<svg xmlns="http://www.w3.org/2000/svg" viewBox="0 0 24 24"><path fill="#2C2E2F" d="M8.03 6h3.479v-.03a3.33 3.33 0 0 0-.404-.963c-.395-.633-.95-.996-1.734-.996-.787 0-1.212.252-1.428.674-.122.238-.16.494-.153.68V5.435a.808.808 0 0 0 .176.489c.02.026.042.052.065.077zM6.886 6c-.074-.21-.1-.414-.094-.595-.014-.343.05-.76.262-1.176.39-.76 1.16-1.218 2.318-1.218 1.16 0 2.017.56 2.582 1.466l.05.081c.027-.046.056-.091.086-.137C12.666 3.542 13.526 3 14.681 3s1.921.442 2.302 1.182c.206.4.265.802.247 1.14v.005a1.67 1.67 0 0 1-.125.673h3.409c.827 0 1.496.67 1.496 1.496v1.955c0 .83-.67 1.554-1.496 1.554l-8.014.004v8.006h7.488v-6.5a.5.5 0 1 1 1 0v7a.5.5 0 0 1-.5.5H3.525a.5.5 0 0 1-.5-.498l-.031-8.61c-.547-.215-.989-.756-.989-1.335V7.558c0-.844.65-1.558 1.487-1.558h3.393zm5.627-.119l.001.007h-.004c-.006.014-.009.016-.009.003V6h3.405c.058-.05.108-.104.15-.16a.804.804 0 0 0 .175-.49l.002-.076c.009-.18-.026-.417-.138-.635C15.89 4.241 15.471 4 14.681 4s-1.352.354-1.756.97a3.226 3.226 0 0 0-.346.71c-.032.091-.054.167-.067.201zM7.675 7l-.001.001L7.672 7h-4.18c-.263 0-.487.247-.487.558v2.014c0 .179.274.433.487.433a.5.5 0 0 1 .5.498l.032 8.512H11.5l.006-8.006-5.466.002a.5.5 0 0 1 0-1l5.466-.002L11.508 7H7.675zm4.825 3.009l8.014-.004c.255 0 .496-.26.496-.554V7.496A.496.496 0 0 0 20.514 7h-4.378a.5.5 0 0 1-.138 0H12.5v3.009z"/></svg>