<svg xmlns="http://www.w3.org/2000/svg" viewBox="0 0 24 24"><path d="M9.8 7c0-.7.2-1.7.7-2.2.7-.8 2-.7 2.2.5.1.6 0 1.2-.3 1.7-.5 1-1.5 1.9-2.6 2.2V7m9.1 10.1c-.6.7-1.3 1.2-2 1.1-.8 0-.7-1-.7-1.5v-2.3-1.3c-.1-1.3-.9-2.3-2.3-2.4-2.4-.1-3.4 2.3-4.1 4.2v-4.2c2.1-.3 5.1-1.5 5.2-4.3.1-4.6-7.6-4.8-7.6 1v1.8C6.3 9 5.5 7.5 5.1 6.6c0-.1-.2-.2-.3-.2-1.5.4-1.7 1.9-.7 3 .8.9 2.1 1.2 3.3 1.3v8.8c0 .5.7.6 1.1.6.4 0 1.2-.1 1.3-.7.1-1.7 1.5-6.5 3.4-6.5.4 0 .7.3.7.7v4c0 1.7.9 2.8 2.6 2.8 1.5 0 2.8-1.2 3.5-2.7.1-.5-.8-.9-1.1-.6" fill="#2c2e2f"/></svg>