<svg xmlns="http://www.w3.org/2000/svg" viewBox="0 0 24 24"><path d="M4.2 5h15.7c.6 0 1.1.5 1.1 1.2v11.7c0 .6-.5 1.2-1.2 1.2H4.2C3.5 19 3 18.5 3 17.8V6.2C3 5.5 3.5 5 4.2 5zm0 1c-.1 0-.2.1-.2.2v11.7s.1.1.2.1h15.7c.1 0 .2-.1.2-.2V6.1c-.1 0-.2-.1-.3-.1H4.2zm4.4 2.3c.2-.4.7-.4.9 0l.9 1.8 2 .3c.4.1.5.5.3.8l-.1.1-1.5 1.4.3 2c.1.4-.3.7-.7.6h-.1l-1.8-1-1.8 1c-.3.2-.7-.1-.7-.4v-.1l.3-2-1.5-1.4c-.1-.4.1-.8.4-1h.1l2-.3 1-1.8zM9 9.6l-.6 1.2c-.1.2-.2.3-.4.3l-1.3.2.9.9c.1.1.1.2.2.3v.1l-.2 1.3 1.2-.6c.1-.1.3-.1.4 0h.1l1.2.6-.2-1.3c0-.1 0-.3.1-.4l.1-.1.9-.9-1.4-.1c-.1 0-.2-.1-.3-.2l-.1-.1L9 9.6zm9 2.8c.3 0 .5.2.5.5 0 .2-.2.4-.4.5h-3.6c-.3 0-.5-.2-.5-.5 0-.2.2-.4.4-.5H18zm0-2.4c.3 0 .5.2.5.5 0 .2-.2.4-.4.5h-3.6c-.3 0-.5-.2-.5-.5 0-.2.2-.4.4-.5H18z"/></svg>