<svg xmlns="http://www.w3.org/2000/svg" viewBox="0 0 24 24"><path fill="#2C2E2F" d="M6.716 16c.159-.359.412-.634.79-.853l1.155-.73a.403.403 0 0 0-.065-.053l-1.681-1.302-.194-.15v-.532c-.225.077-.47.12-.732.12-.255 0-.492-.04-.71-.114v.526l-.194.15-1.68 1.302c-.232.149-.405.663-.405 1.257V16h3.716zm-.21 1H2.838C2.346 17 2 16.563 2 16.073v-.452c0-.9.276-1.72.827-2.073l1.452-1.126v-.73c-.51-.6-.779-1.455-.779-2.29C3.5 8.086 4.389 7 5.989 7 7.589 7 8.5 8.111 8.5 9.429c0 .816-.272 1.657-.779 2.252v.74l1.452 1.127c.125.08.24.192.343.33l.324-.206V12.11c-.61-.777-.913-1.897-.913-3.047 0-1.803.997-3.197 3.057-3.197S15.04 7.26 15.04 9.063c0 1.128-.29 2.227-.878 3.002v1.61l.379.242c.128-.152.276-.283.44-.387l1.397-1.12v-.642c-.566-.593-.878-1.467-.878-2.309C15.5 8.14 16.451 7 18.054 7c1.6 0 2.446 1.138 2.446 2.506 0 .9-.298 1.79-.878 2.362v.542l1.397 1.12c.612.389.981 1.137.981 1.943v.599c0 .49-.35.927-.843.927H17.48c.007.108.01.22.01.337v.592c0 .554-.416 1.027-.964 1.027H7.46c-.548 0-.965-.473-.965-1.027v-.592c0-.117.003-.229.01-.336zm10.751-1L21 15.999v-.526c0-.479-.21-.904-.56-1.13l-1.818-1.452v-.458a2.356 2.356 0 0 1-1.244-.033v.49l-1.817 1.453c-.061.04-.115.08-.162.124l1.046.67c.386.223.647.504.812.863zM7.5 9.429C7.5 8.624 6.988 8 5.989 8 4.99 8 4.5 8.598 4.5 9.403c0 1.035.595 2.097 1.489 2.097.902 0 1.511-1.056 1.511-2.071zm9 .03c0 .992.638 2.041 1.554 2.041.9 0 1.446-.96 1.446-1.994C19.5 8.637 19.027 8 18.054 8c-1.007 0-1.554.655-1.554 1.46zM13.162 12.9a2.687 2.687 0 0 1-1.178.258c-.426 0-.807-.086-1.144-.241v1.307l-.233.147-2.584 1.632c-.399.23-.527.56-.527 1.333v.592c0 .026 0 .027-.029.027h9.05c-.026 0-.027-.001-.027-.027v-.592c0-.756-.138-1.097-.565-1.345l-2.763-1.77v-1.32zM9.927 9.063c0 1.617.745 3.095 2.057 3.095 1.312 0 2.056-1.478 2.056-3.095 0-1.31-.635-2.197-2.056-2.197-1.422 0-2.057.888-2.057 2.197z"/></svg>