<svg xmlns="http://www.w3.org/2000/svg" viewBox="0 0 24 24"><path fill="#2C2E2F" d="M1.955 9.502a.51.51 0 0 1 0-.02v-2.73c0-.992.805-1.798 1.798-1.798h16.503a1.8 1.8 0 0 1 1.799 1.799v.856a.5.5 0 0 1-1 0v-.856a.8.8 0 0 0-.8-.799H3.754a.799.799 0 0 0-.798.799v2.24h3.093a.5.5 0 0 1 0 1H2.955v7.144c0 .44.358.798.798.798h16.503a.8.8 0 0 0 .799-.798V9.915h-2.867a.5.5 0 0 1 0-1h3.367a.5.5 0 0 1 .5.5v7.722a1.8 1.8 0 0 1-1.8 1.798H3.754a1.799 1.799 0 0 1-1.798-1.798V9.502zm11.92-1.74c-.298-.104-.695-.156-1.21-.16a.506.506 0 0 1-.051.003H9.607L8.384 15.36H9.39c.116 0 .21.03.286.08l.41-2.602.049-.147a.816.816 0 0 1 .75-.496h.899c1.723 0 2.696-.67 3.02-2.085l.004-.022.018-.108a2.105 2.105 0 0 0-.788-.15h-2.486l-.23 1.567a.5.5 0 1 1-.99-.145l.243-1.652a.917.917 0 0 1 .919-.77h2.544c.296 0 .586.041.854.117-.092-.597-.483-.998-1.017-1.185zm-4.341 8.58l.142-.904c.327.215.28.796-.142.904zm-.046.29l.046-.29a.58.58 0 0 1-.143.017l-1.285.003a.766.766 0 0 1-.756-.884l1.274-8.082a.937.937 0 0 1 .929-.793h3.06c.643 0 1.16.064 1.591.214 1.064.372 1.818 1.328 1.695 2.691.621.606.781 1.38.594 2.342-.354 1.817-1.541 2.748-3.48 2.748h-.239l-.336 2.096a.76.76 0 0 1-.753.64H10.09a.615.615 0 0 1-.462-.212.62.62 0 0 1-.14-.49zm6.023-4.973a2.45 2.45 0 0 0 .052-.644c-.595 1.45-1.897 2.18-3.78 2.18h-.74l-.496 3.14h.936l.304-1.895a1 1 0 0 1 .99-.842h.237c1.47 0 2.237-.602 2.497-1.94zm-7.127 3.7h-.278c.069 0 .134.03.179.082a.237.237 0 0 1 .057.187l.042-.27z"/></svg>