<svg xmlns="http://www.w3.org/2000/svg" viewBox="0 0 24 24"><g fill="#333" fill-rule="nonzero"><path d="M10.337 4.44a4.82 4.82 0 0 1 4.74-.558L21 6.388v-.635a.5.5 0 0 1 .41-.492l.09-.008a.5.5 0 0 1 .492.41l.008.09v11a.5.5 0 0 1-.992.09l-.008-.09V16h-2c-.351 0-.58-.085-.795-.29l-.09-.095-6.353-7.182a.35.35 0 0 0-.38-.1l-.057.029-.001.001-.801.6a3.443 3.443 0 0 1-3.72.266l-.217-.118a1.08 1.08 0 0 1-.12-1.816zm4.351.363a3.82 3.82 0 0 0-3.757.443L7.058 8.1a.08.08 0 0 0 .007.134l.217.117c.84.461 1.873.388 2.641-.188l-.037.025.032-.028.729-.54.077-.057a.51.51 0 0 1 .007-.005l.005-.004a1.333 1.333 0 0 1 1.684.124l.09.092 6.354 7.183c.032.036.034.046.055.048l2.08-.001V7.474z"/><path d="M2.5 5.253a.5.5 0 0 1 .492.41l.008.09L2.999 6H5a.5.5 0 0 1 .492.41l.008.09a.5.5 0 0 1-.41.492L5 7H2.999L3 15.03h1.1c.057.001.112.008.165.021l.08.024c.13.046.229.11.357.213l.07.058.036.028 4.696 3.57c.178.136.38.234.595.289a.63.63 0 0 0 .722-.333l.036-.092.046-.148L8.19 15.98a.5.5 0 0 1-.062-.637l.058-.07a.5.5 0 0 1 .707-.004l3.104 3.066c.15.149.338.254.543.305a.717.717 0 0 0 .862-.503l.028-.099-2.6-2.75a.5.5 0 0 1 .659-.747l.067.06 3.004 3.178c.15.156.355.247.57.254a.67.67 0 0 0 .605-.342l.045-.097.115-.31-2.421-2.666a.5.5 0 0 1 .673-.734l.067.062 2.494 2.745a.693.693 0 0 0 .647.214l.077-.028.191-.153a.5.5 0 0 1 .692.716l-.065.063-.266.203c-.387.21-.828.252-1.231.14l-.035.095c-.25.674-.9 1.113-1.619 1.092-.314-.01-.618-.101-.884-.262a1.714 1.714 0 0 1-1.916.84 2.178 2.178 0 0 1-.594-.246 1.625 1.625 0 0 1-1.854.835 2.644 2.644 0 0 1-.777-.338l-.175-.122-4.693-3.569a3.822 3.822 0 0 1-.13-.104l-.028-.022-.02-.015H3v.722a.5.5 0 0 1-.992.09L2 16.752v-11a.5.5 0 0 1 .5-.5z"/></g></svg>