<svg xmlns="http://www.w3.org/2000/svg" viewBox="0 0 24 24"><path fill="#2C2E2F" d="M7.862 15.837l-.73-.734a.5.5 0 0 1-.114-.525c1.334-3.617 3.168-6.338 5.38-8.27 1.666-1.455 3.453-2.386 5.25-2.895 1.127-.32 2.047-.423 2.654-.412h.022a.5.5 0 0 1 .255.08l.195.126a.5.5 0 0 1 .228.41v.01c.006.575-.101 1.48-.427 2.605-.528 1.818-1.485 3.63-2.975 5.316-1.945 2.2-4.662 4.028-8.256 5.36a.5.5 0 0 1-.528-.115l-.728-.732-.226-.224zm.206-1.211l.5.503.226.224.503.505c3.292-1.265 5.774-2.958 7.553-4.972 1.39-1.572 2.277-3.251 2.764-4.933.231-.797.34-1.463.375-1.947-.51.024-1.22.129-2.068.369-1.66.47-3.315 1.333-4.865 2.686-2.023 1.767-3.722 4.252-4.988 7.565zm4.307 3.493c1.144-1.28 1.694-2.684 1.367-4.16a.5.5 0 0 1 .977-.216c.407 1.841-.26 3.544-1.598 5.042-.366.41-.758.775-1.15 1.09-.238.19-.425.325-.538.398a.5.5 0 0 1-.745-.581c.402-1.186.304-2.151-.094-2.915a2.01 2.01 0 0 0-.312-.462.5.5 0 1 1 .703-.712c.136.135.318.372.496.712a4.2 4.2 0 0 1 .453 2.262c.15-.145.298-.298.441-.458zm-4.873-5.795c.34.178.576.361.71.498a.5.5 0 0 1-.714.7 2.001 2.001 0 0 0-.46-.312c-.76-.4-1.722-.498-2.902-.095a.5.5 0 0 1-.583-.743c.073-.113.206-.301.396-.54a9.658 9.658 0 0 1 1.087-1.154c1.493-1.342 3.192-2.012 5.03-1.603a.5.5 0 0 1-.218.976c-1.47-.327-2.868.224-4.144 1.371a8.429 8.429 0 0 0-.46.447c.85-.06 1.608.114 2.258.455zm-.684 5.424L3.864 20.71c-.47.472-1.179-.234-.708-.706l2.954-2.963c.47-.472 1.179.234.708.706zm-.67-2.11l-2.052 2.057c-.471.472-1.18-.234-.708-.706l2.051-2.057c.471-.472 1.18.234.708.706zM8.92 18.42l-2.05 2.057c-.471.472-1.18-.234-.709-.706l2.051-2.057c.471-.472 1.18.234.708.706zm6.96-8.355a2.079 2.079 0 1 1 0-4.157 2.079 2.079 0 0 1 0 4.157zm0-1a1.079 1.079 0 1 0 0-2.157 1.079 1.079 0 0 0 0 2.157z"/></svg>