<svg xmlns="http://www.w3.org/2000/svg" viewBox="0 0 24 24"><path fill="#2C2E2F" d="M3 3v2.954H2V2.5a.5.5 0 0 1 .5-.5h3.454v1H3zm0 18h3v1H2.5a.5.5 0 0 1-.5-.5V18h1v3zM21 3h-3V2h3.5a.5.5 0 0 1 .5.5V6h-1V3zm0 18v-3h1v3.5a.5.5 0 0 1-.5.5H18v-1h3zM6 6v4h4V6H6zm-.5-1h5a.5.5 0 0 1 .5.5v5a.5.5 0 0 1-.5.5h-5a.5.5 0 0 1-.5-.5v-5a.5.5 0 0 1 .5-.5zm.5 9v4h4v-4H6zm-.5-1h5a.5.5 0 0 1 .5.5v5a.5.5 0 0 1-.5.5h-5a.5.5 0 0 1-.5-.5v-5a.5.5 0 0 1 .5-.5zM14 6v4h4V6h-4zm-.5-1h5a.5.5 0 0 1 .5.5v5a.5.5 0 0 1-.5.5h-5a.5.5 0 0 1-.5-.5v-5a.5.5 0 0 1 .5-.5zM15 7h2v2h-2V7zM7 7h2v2H7V7zm0 8h2v2H7v-2zm8.436-.715a.353.353 0 0 0-.193.264l-.59 3.79h-.997a.158.158 0 0 1-.154-.183l.756-4.883a.261.261 0 0 1 .257-.223h1.691c.626 0 1.11.138 1.386.448.187.212.296.488.267.884l-.055-.02a1.648 1.648 0 0 0-.178-.05 3.039 3.039 0 0 0-.616-.061h-1.424a.34.34 0 0 0-.15.034zm2.293.307c.033.012.066.024.097.038a3.127 3.127 0 0 1-.095.367c-.19.594-.57.968-1.134 1.133a2.704 2.704 0 0 1-.758.097h-.533a.447.447 0 0 0-.082.008l.24-1.546a.23.23 0 0 1 .224-.195h1.322a2.799 2.799 0 0 1 .564.055 1.545 1.545 0 0 1 .155.043zm.49.282c.194.225.252.534.209.9-.005.034-.01.067-.017.1-.21 1.094-.926 1.473-1.842 1.473h-.141a.229.229 0 0 0-.225.196l-.199 1.262a.229.229 0 0 1-.224.195h-.82c-.076 0-.148-.069-.135-.153.015-.107.333-2.143.333-2.143a.26.26 0 0 1 .255-.223l.409.001c1.648 0 2.087-1.021 2.235-1.747a.83.83 0 0 1 .161.139z"/></svg>