<svg xmlns="http://www.w3.org/2000/svg" viewBox="0 0 24 24"><path fill="#2C2E2F" d="M18.2 2.5a.51.51 0 0 1 .036 0h.264c.064 0 .124.012.18.034a3.262 3.262 0 0 1 2.791 3.227.5.5 0 0 1-.5.5h-1.97v5.693l-.001.02a.501.501 0 0 1-.601.513L5.446 9.802a.5.5 0 0 1-.398-.49V5.294A2.795 2.795 0 0 1 7.841 2.5H18.2zm.8 1.142V5.26h1.416A2.265 2.265 0 0 0 19 3.641zM15.777 21.5a3.076 3.076 0 0 1-.178 0H5.547c-.06 0-.119-.01-.173-.03A3.023 3.023 0 0 1 2.5 18.45a.5.5 0 0 1 .5-.5h2.048v-5.902-.023a.5.5 0 0 1 .601-.515l12.952 2.685a.5.5 0 0 1 .399.49v4.034c0 1.515-1.499 2.781-3.084 2.781h-.139zm-.155-1h.294c1.067 0 2.084-.86 2.084-1.781V15.09L6.048 12.614v5.336h7.148a.5.5 0 0 1 .49.405.5.5 0 0 1 .017.125c0 1.083.85 1.967 1.92 2.02zm-2.145 0a3.012 3.012 0 0 1-.738-1.55H3.562a2.024 2.024 0 0 0 1.961 1.523.5.5 0 0 1 .163.027h7.79zM6.047 8.905L18 11.383V3.5H7.843c-.992 0-1.795.804-1.795 1.794v3.611z"/></svg>