<svg xmlns="http://www.w3.org/2000/svg" viewBox="0 0 24 24"><path d="M4.416 9.447a8 8 0 0 0 13.513 7.923 1.6 1.6 0 0 1-.716-.756 1.193 1.193 0 0 1-.051-1.042c.002-.004.029-.295.037-.64.005-.194.006-.358.006-.647 0-.51.203-.825.672-1.22-.31-.187-.487-.495-.426-.896a.233.233 0 0 0-.086-.007c-.866 0-1.39-.583-1.507-1.554a1.412 1.412 0 0 1-.766-.966c-.226-.845.191-1.37.98-1.723.084-.037.149-.063.286-.118.108-.043.157-.063.21-.086.427-.186 1.149-.2 2.114-.116a8.044 8.044 0 0 0-2.106-2.162 1.8 1.8 0 0 0-.018.011 1.8 1.8 0 0 1-1.191 1.039 3.34 3.34 0 0 0-.528.185c-.2.09-.407.164-.633.224-.08.019-.16.032-.262.041a1.964 1.964 0 0 1-1.632-.734c-.339-.488-.227-1.049.216-2.05.023-.044.046-.088.07-.13a8.114 8.114 0 0 0-2.274.153 1.942 1.942 0 0 1-.028.197c-.039.285-.016.74.04.811.549.718.848 1.55.468 2.139-.287.52-.802.856-1.45.888.105.01.1.013.114.005-.058.03-.142.077-.244.14a17.977 17.977 0 0 0-.968.634 4.62 4.62 0 0 0 .307-.018l.047-.004c.681-.06 1.041.033 1.421.603.128.232.21.489.243.754.232-.096.394-.15.58-.182.29-.05.565-.024.822.102.832.408 1.45 1.222 1.302 2.021a3.343 3.343 0 0 0-.027.176l-.004.029c-.03.226-.05.34-.09.489-.144.537-.464.936-1.03 1.14-.328.117-.351.15-.38.518-.076.767-.532 1.436-1.179 1.739-.095.051-.089.037-.118.307l-.01.087-.008.074a.93.93 0 0 0 .01.247c.104.329.065.689-.13 1.021a.933.933 0 0 1-.808.406c-.606-.008-1.126-.434-1.304-1.12a6.61 6.61 0 0 1-.021-.886c.008-.568-.006-.982-.037-1.048a4.174 4.174 0 0 1-.242-.918 3.628 3.628 0 0 0-.23-.85 1.428 1.428 0 0 0-.357-.307c-.672-.491-.944-.8-.944-1.402 0-.267-.003-.389-.016-.532-.035-.395-.14-.637-.353-.79-.598-.43-1.012-.789-1.284-1.199zm.58-1.315a.51.51 0 0 1 0 .007c.085.692.406 1.062 1.287 1.694.49.351.708.857.766 1.513.017.183.02.326.02.622 0 .155.121.293.502.573.245.15.46.348.635.581l.06.104c.157.368.266.758.323 1.158.036.24.097.474.167.657.126.253.136.554.122 1.481-.01.256-.005.512.003.681.044.162.161.27.311.293a.321.321 0 0 0-.014-.158 1.9 1.9 0 0 1-.04-.612l.008-.08.01-.091c.062-.564.195-.84.663-1.09.346-.163.59-.523.631-.936.06-.734.322-1.114 1.04-1.371.23-.083.337-.216.402-.458.025-.094.04-.178.064-.363l.004-.03a4.11 4.11 0 0 1 .035-.225c.05-.266-.285-.706-.76-.939-.05-.025-.115-.031-.21-.015-.107.019-.225.06-.428.146-.03.012-.03.012-.015.004a1.7 1.7 0 0 1-.704.203.5.5 0 0 1-.503-.332 1.519 1.519 0 0 1-.086-.541 1.108 1.108 0 0 0-.11-.518c-.103-.152-.124-.157-.482-.125l-.05.004c-.18.015-.307.022-.46.022-.403 0-.738-.08-1.007-.22a1.197 1.197 0 0 1-.383-.296c-.094-.57-.094-.57 0-.626.041-.048.041-.048.066-.072l.09-.078c.06-.047.143-.11.245-.184.201-.147.466-.333.73-.511.902-.612 1.236-.813 1.44-.79.226-.013.437-.15.577-.403.08-.125-.095-.616-.404-1.02-.236-.308-.295-.818-.259-1.317a8.026 8.026 0 0 0-4.287 3.658zm8.711-3.95a1.848 1.848 0 0 0-.274.398c-.286.646-.352.976-.326 1.017a.942.942 0 0 0 .762.343.822.822 0 0 0 .095-.014c.158-.042.313-.097.463-.165.223-.1.453-.181.684-.241a.797.797 0 0 0 .554-.538.5.5 0 0 1 .031-.079 7.944 7.944 0 0 0-1.989-.72zm5.553 4.452a4.196 4.196 0 0 1-.454-.019c-.883-.088-1.603-.086-1.837.016-.068.03-.124.052-.242.1a6.1 6.1 0 0 0-.247.102c-.396.176-.49.295-.416.578.03.14.127.256.293.325.059.03.094.048.132.07.222.135.331.328.353.596.048.573.205.76.484.761.328-.025.65.097.912.37.178.225.25.515.203.779v.003c.017-.071.06-.053.304 0 .144.03.225.05.308.078a.5.5 0 0 1 .194.832 4.587 4.587 0 0 1-.492.419l-.036.027c-.396.307-.514.45-.514.614 0 .297 0 .467-.006.671-.014.553-.042.862-.124 1.02-.019.049-.015.103.032.192.08.18.232.316.382.363a.875.875 0 0 0 .094.016A7.963 7.963 0 0 0 20 12a7.97 7.97 0 0 0-.74-3.366zM12 21a9 9 0 1 1 0-18 9 9 0 0 1 0 18z"/></svg>