<svg width="28" height="28" viewBox="0 20 100.98 120" xmlns="http://www.w3.org/2000/svg"><path fill="#d20000" d="M50.488 99.609q-1.318 0-2.148-.879-.83-.879-.83-2.1 0-1.269.83-2.1.83-.83 2.148-.83t2.148.83q.88.831.88 2.1 0 1.221-.88 2.1-.879.879-2.148.879zm-31.787 20.068q-3.613 0-5.322-2.686-2.002-3.32.097-7.177l31.738-63.721q1.612-2.979 4.493-2.295 2.88.879 2.88 3.71v38.185q0 .928-.585 1.513-.538.586-1.416.586t-1.514-.586q-.635-.585-.684-1.513V49.218l-31.104 62.5q-1.123 2.1-.293 2.978.489.782 1.71.782h63.476q1.416 0 1.807-.782.879-.976-.293-2.978L59.423 62.89q-.977-1.71.879-2.881 2.002-.684 2.783.976l24.316 48.828q2.197 3.907.39 6.885-1.806 2.979-5.615 2.979H18.7z"/></svg>